<svg width="45" height="5" viewBox="0 0 20 20" fill="none" xmlns="http://www.w3.org/2000/svg">
<path fill-rule="evenodd" clip-rule="evenodd" d="M0 7.90763C0 12.2679 3.5472 15.8153 7.90726 15.8153C9.80322 15.8153 
11.5455 15.1445 12.9092 14.0278L18.6494 19.7683C18.7227 19.8418 18.8099 19.9001 18.9058 19.9399C19.0017 19.9796 19.1046 
20.0001 19.2084 20C19.365 20.0003 19.5181 19.9541 19.6483 19.8673C19.7786 19.7805 19.8801 19.6569 19.94 19.5123C19.9999 
19.3676 20.0155 19.2085 19.9848 19.055C19.9541 18.9015 19.8784 18.7606 19.7675 18.6501L14.0273 12.9096C15.1438 11.5459 
15.8145 9.8036 15.8145 7.90763C15.8145 3.54736 12.2673 0 7.90726 0C3.5472 0 0 3.54736 0 7.90763ZM1.58145 7.90763C1.58145
 4.41957 4.41937 1.58153 7.90726 1.58153C11.3959 1.58153 14.2331 4.41957 14.2331 7.90763C14.2331 11.3957 11.3951 14.2337 
 7.90726 14.2337C4.41937 14.2337 1.58145 11.3957 1.58145 7.90763Z" fill="yellow"/>
</svg>
